<?xml version="1.0" encoding="UTF-8"?>
<svg width="60px" height="60px" viewBox="0 0 60 60" version="1.1" xmlns="http://www.w3.org/2000/svg" xmlns:xlink="http://www.w3.org/1999/xlink">
    <title>Fill 1</title>
    <g id="Page-1" stroke="none" stroke-width="1" fill="none" fill-rule="evenodd">
        <path d="M30,43.7068966 C22.2413793,43.7068966 16.2931034,37.7586207 16.2931034,30 C16.2931034,22.2413793 22.2413793,16.3793103 30,16.3793103 C37.7586207,16.3793103 43.7068966,22.2413793 43.7068966,30 C43.7068966,37.7586207 37.7586207,43.7068966 30,43.7068966 Z M1.46551724,26.2931034 L0,30.6034483 L6.72413793,33.0172414 C9.74137931,34.137931 11.3793103,30 8.36206897,28.7931034 L1.46551724,26.2931034 Z M11.8103448,6.55172414 L7.32758621,8.62068966 L10.7758621,15.1724138 C11.8103448,17.6724138 16.2068966,16.1206897 14.8275862,13.1034483 L11.8103448,6.55172414 Z M29.3965517,0 L26.9827586,6.72413793 C25.862069,9.74137931 30.0862069,11.3793103 31.2931034,8.36206897 L33.7931034,1.55172414 L29.3965517,0 Z M51.5517241,7.32758621 L45,10.4310345 C42.1551724,11.8965517 43.9655172,15.9482759 46.9827586,14.6551724 L53.5344828,11.5517241 L51.5517241,7.32758621 Z M51.637931,31.2931034 L58.5344828,33.7931034 L60,29.4827586 L53.2758621,27.0689655 C50.1724138,25.9482759 48.7068966,30.2586207 51.637931,31.2931034 Z M48.0172414,53.7931034 L52.5,51.5517241 L49.3965517,44.9137931 C48.1896552,42.4137931 43.7931034,43.7931034 45.1724138,47.0689655 L48.0172414,53.7931034 Z M30.6034483,59.9137931 L33.0172414,53.1896552 C34.137931,50.1724138 29.9137931,48.5344828 28.7068966,51.5517241 L26.2068966,58.362069 L30.6034483,59.9137931 Z M8.44827586,52.6724138 L15.0862069,49.6551724 C17.7586207,47.9310345 16.0344828,44.3103448 13.0172414,45.3448276 L6.46551724,48.4482759 L8.44827586,52.6724138 Z" id="Fill-1" fill="#815F00"></path>
    </g>
</svg>