<?xml version="1.0" encoding="UTF-8"?>
<svg width="639px" height="162px" viewBox="0 0 639 162" version="1.1" xmlns="http://www.w3.org/2000/svg" xmlns:xlink="http://www.w3.org/1999/xlink">
    <title>Group 9</title>
    <g id="Page-1" stroke="none" stroke-width="1" fill="none" fill-rule="evenodd">
        <g id="Group-9" fill="#815F00">
            <path d="M81,118 C60.0566038,118 44,101.892744 44,80.8832808 C44,59.873817 60.0566038,44 81,44 C101.943396,44 118,59.873817 118,80.8832808 C118,101.892744 101.943396,118 81,118 Z M3.97065293,71 L0,82.8438984 L18.2182899,89.4764815 C26.3931636,92.5558951 30.8309521,81.1857526 22.6560785,77.8694611 L3.97065293,71 Z M32.1228362,17 L20,22.6611295 L29.3252587,40.5880397 C32.1228362,47.4285713 44.012541,43.1827241 40.2824376,34.9269102 L32.1228362,17 Z M79.0624864,0 L72.5085574,18.2182899 C69.4656618,26.3931636 80.9350376,30.8309521 84.2120021,22.6560785 L91,4.20422075 L79.0624864,0 Z M139.624316,20 L121.861187,28.1900487 C114.14825,32.0575717 119.056483,42.7501353 127.236871,39.337615 L145,31.1475663 L139.624316,20 Z M139.309564,84.1244832 L158.023326,91 L162,79.1456607 L143.754082,72.5072307 C135.332889,69.4251025 131.356215,81.2794418 139.309564,84.1244832 Z M129.601221,145 L142,139.045836 L133.41623,121.412348 C130.078097,114.771165 117.917756,118.435266 121.732765,127.137507 L129.601221,145 Z M82.9375136,162 L89.4914426,143.78171 C92.5343382,135.606836 81.0649624,131.169048 77.7879979,139.343922 L71,157.795779 L82.9375136,162 Z M22.3834918,142 L40.4064863,133.964998 C47.662497,129.373568 42.9811998,119.731565 34.7889296,122.486423 L17,130.750997 L22.3834918,142 Z" id="Fill-1"></path>
            <g id="7-Min-Channel" transform="translate(183.000000, 54.000000)" fill-rule="nonzero">
                <polygon id="Path" points="25.8680628 8.94248094 25.8680628 8.46708247 0 8.46708247 0 3 32 3 32 8.67082467 10.4879581 52 4.15497382 52"></polygon>
                <polygon id="Path" points="69.0548523 3 85.7299578 43.8842689 86.2700422 43.8842689 102.945148 3 110 3 110 52 104.329114 52 104.329114 14.5793486 103.924051 14.5793486 88.5654008 52 83.4345992 52 68.0759494 14.5793486 67.6708861 14.5793486 67.6708861 52 62 52 62 3"></polygon>
                <path d="M122.133333,15.266055 L127.866667,15.266055 L127.866667,52 L122.133333,52 L122.133333,15.266055 Z M125,8.17824377 C123.888889,8.17824377 122.944444,7.78069026 122.166667,6.98558322 C121.388889,6.19047619 121,5.22498908 121,4.08912189 C121,2.9532547 121.388889,1.98776758 122.166667,1.19266055 C122.944444,0.397553517 123.888889,0 125,0 C126.111111,0 127.055556,0.397553517 127.833333,1.19266055 C128.611111,1.98776758 129,2.9532547 129,4.08912189 C129,5.22498908 128.611111,6.19047619 127.833333,6.98558322 C127.055556,7.78069026 126.111111,8.17824377 125,8.17824377 Z" id="Shape"></path>
                <path d="M139,51 L139,14.6408387 L144.584563,14.6408387 L144.584563,20.3746582 L145.129398,20.3746582 C146.060159,18.3509572 147.422247,16.7825889 149.215664,15.6695533 C151.009081,14.5565178 153.324631,14 156.162316,14 C160.316686,14 163.494892,15.1580067 165.696935,17.4740201 C167.898978,19.7900334 169,23.1178973 169,27.4576117 L169,51 L163.143019,51 L163.143019,28.8742024 C163.143019,25.5913096 162.439274,23.1628684 161.031782,21.5888788 C159.624291,20.0148891 157.444949,19.2278943 154.493757,19.2278943 C153.040863,19.2278943 151.718502,19.4639927 150.526674,19.9361896 C149.334847,20.4083865 148.318956,21.0829535 147.479001,21.9598906 C146.639047,22.8368277 145.992054,23.9105135 145.538025,25.180948 C145.083995,26.4513826 144.856981,27.8848374 144.856981,29.4813127 L144.856981,51 L139,51 Z" id="Path"></path>
                <path d="M220.407377,53 C217.113934,53 214.145355,52.4093316 211.501639,51.2279947 C208.857923,50.0466578 206.611885,48.3534083 204.763525,46.1482462 C202.915164,43.9430841 201.492486,41.2653872 200.495492,38.1151555 C199.498497,34.9649239 199,31.4321641 199,27.5168762 C199,23.5790867 199.498497,20.0350761 200.495492,16.8848445 C201.492486,13.7346128 202.915164,11.0569159 204.763525,8.85175381 C206.611885,6.64659166 208.852322,4.95334216 211.484836,3.77200529 C214.11735,2.59066843 217.080328,2 220.37377,2 C222.927869,2 225.319536,2.38252813 227.54877,3.14758438 C229.778005,3.91264064 231.755191,4.99272005 233.480328,6.38782263 C235.205464,7.78292522 236.633743,9.45367306 237.765164,11.4000662 C238.896585,13.3464593 239.64153,15.4897419 240,17.829914 L233.85,17.829914 C233.446721,16.2547981 232.830601,14.8371939 232.001639,13.5771013 C231.172678,12.3170086 230.175683,11.2425546 229.010656,10.3537392 C227.845628,9.46492389 226.534973,8.78424884 225.078689,8.3117141 C223.622404,7.83917935 222.054098,7.60291198 220.37377,7.60291198 C218.043716,7.60291198 215.943306,8.06982131 214.072541,9.00363997 C212.201776,9.93745864 210.611066,11.2650563 209.30041,12.9864328 C207.989754,14.7078094 206.981557,16.7948379 206.27582,19.2475182 C205.570082,21.7001985 205.217213,24.4566512 205.217213,27.5168762 C205.217213,30.5771013 205.570082,33.3335539 206.27582,35.7862343 C206.981557,38.2389146 207.989754,40.3259431 209.30041,42.0473197 C210.611066,43.7686962 212.207377,45.0906684 214.089344,46.0132363 C215.971311,46.9358041 218.077322,47.397088 220.407377,47.397088 C222.087705,47.397088 223.661612,47.1889477 225.129098,46.7726671 C226.596585,46.3563865 227.912842,45.7544672 229.077869,44.9669093 C230.242896,44.1793514 231.23429,43.2230311 232.052049,42.0979484 C232.869809,40.9728657 233.469126,39.7015222 233.85,38.2839179 L240,38.2839179 C239.596721,40.5115817 238.834973,42.5311052 237.714754,44.3424884 C236.594536,46.1538716 235.18306,47.7008604 233.480328,48.9834547 C231.777596,50.266049 229.817213,51.2561218 227.59918,51.9536731 C225.381148,52.6512244 222.98388,53 220.407377,53 Z" id="Path"></path>
                <path d="M250,1 L255.784753,1 L255.784753,21.250996 L256.32287,21.250996 C257.242152,19.2191235 258.632287,17.6444223 260.493274,16.5268924 C262.35426,15.4093625 264.686099,14.8505976 267.488789,14.8505976 C269.41704,14.8505976 271.149103,15.1553785 272.684978,15.7649402 C274.220852,16.374502 275.532511,17.2549801 276.619955,18.4063745 C277.707399,19.5577689 278.542601,20.9687915 279.125561,22.6394422 C279.70852,24.310093 280,26.2177955 280,28.3625498 L280,52 L274.215247,52 L274.215247,29.7848606 C274.215247,26.5338645 273.508969,24.1069057 272.096413,22.5039841 C270.683857,20.9010624 268.598655,20.0996016 265.840807,20.0996016 C264.226457,20.0996016 262.79148,20.3479416 261.535874,20.8446215 C260.280269,21.3413015 259.226457,22.0411687 258.374439,22.9442231 C257.522422,23.8472776 256.877803,24.9309429 256.440583,26.1952191 C256.003363,27.4594954 255.784753,28.8592297 255.784753,30.3944223 L255.784753,52 L250,52 L250,1 Z" id="Path"></path>
                <path d="M289,41.0698925 C289,37.755675 290.164384,35.1792115 292.493151,33.3405018 C294.821918,31.5017921 298.143836,30.4575866 302.458904,30.2078853 L313.109589,29.5609319 L313.109589,26.2240143 C313.109589,23.9540024 312.407534,22.2174432 311.003425,21.0143369 C309.599315,19.8112306 307.515982,19.2096774 304.753425,19.2096774 C302.538813,19.2096774 300.700913,19.6069295 299.239726,20.4014337 C297.778539,21.1959379 296.842466,22.3195938 296.431507,23.7724014 L290.472603,23.7724014 C290.678082,22.2968937 291.174658,20.9575866 291.962329,19.7544803 C292.75,18.551374 293.777397,17.5241935 295.044521,16.6729391 C296.311644,15.8216846 297.789954,15.1633811 299.479452,14.6980287 C301.16895,14.2326762 302.995434,14 304.958904,14 C307.219178,14 309.216895,14.2780765 310.952055,14.8342294 C312.687215,15.3903823 314.15411,16.1962366 315.35274,17.2517921 C316.55137,18.3073477 317.458904,19.5899044 318.075342,21.0994624 C318.691781,22.6090203 319,24.3172043 319,26.2240143 L319,51.3530466 L313.383562,51.3530466 L313.383562,45.9390681 L312.835616,45.9390681 C311.625571,47.9139785 310.050228,49.4178614 308.109589,50.4507168 C306.16895,51.4835723 303.954338,52 301.465753,52 C299.684932,52 298.02968,51.7446237 296.5,51.233871 C294.97032,50.7231183 293.651826,49.9967145 292.544521,49.0546595 C291.437215,48.1126045 290.569635,46.9662485 289.941781,45.6155914 C289.313927,44.2649343 289,42.7497013 289,41.0698925 Z M302.561644,46.8584229 C304.068493,46.8584229 305.466895,46.6257467 306.756849,46.1603943 C308.046804,45.6950418 309.165525,45.0537634 310.113014,44.2365591 C311.060502,43.4193548 311.796804,42.4489247 312.321918,41.3252688 C312.847032,40.2016129 313.109589,38.9814815 313.109589,37.6648746 L313.109589,34.2939068 L303.178082,34.9408602 C300.347032,35.1224612 298.292237,35.7069892 297.013699,36.6944444 C295.73516,37.6818996 295.09589,39.0949821 295.09589,40.9336918 C295.09589,41.8643967 295.284247,42.698626 295.660959,43.4363799 C296.037671,44.1741338 296.557078,44.7983871 297.219178,45.3091398 C297.881279,45.8198925 298.66895,46.2057945 299.582192,46.4668459 C300.495434,46.7278973 301.488584,46.8584229 302.561644,46.8584229 Z" id="Shape"></path>
                <path d="M329,51 L329,14.6408387 L334.584563,14.6408387 L334.584563,20.3746582 L335.129398,20.3746582 C336.060159,18.3509572 337.422247,16.7825889 339.215664,15.6695533 C341.009081,14.5565178 343.324631,14 346.162316,14 C350.316686,14 353.494892,15.1580067 355.696935,17.4740201 C357.898978,19.7900334 359,23.1178973 359,27.4576117 L359,51 L353.143019,51 L353.143019,28.8742024 C353.143019,25.5913096 352.439274,23.1628684 351.031782,21.5888788 C349.624291,20.0148891 347.444949,19.2278943 344.493757,19.2278943 C343.040863,19.2278943 341.718502,19.4639927 340.526674,19.9361896 C339.334847,20.4083865 338.318956,21.0829535 337.479001,21.9598906 C336.639047,22.8368277 335.992054,23.9105135 335.538025,25.180948 C335.083995,26.4513826 334.856981,27.8848374 334.856981,29.4813127 L334.856981,51 L329,51 Z" id="Path"></path>
                <path d="M370,51 L370,14.6408387 L375.584563,14.6408387 L375.584563,20.3746582 L376.129398,20.3746582 C377.060159,18.3509572 378.422247,16.7825889 380.215664,15.6695533 C382.009081,14.5565178 384.324631,14 387.162316,14 C391.316686,14 394.494892,15.1580067 396.696935,17.4740201 C398.898978,19.7900334 400,23.1178973 400,27.4576117 L400,51 L394.143019,51 L394.143019,28.8742024 C394.143019,25.5913096 393.439274,23.1628684 392.031782,21.5888788 C390.624291,20.0148891 388.444949,19.2278943 385.493757,19.2278943 C384.040863,19.2278943 382.718502,19.4639927 381.526674,19.9361896 C380.334847,20.4083865 379.318956,21.0829535 378.479001,21.9598906 C377.639047,22.8368277 376.992054,23.9105135 376.538025,25.180948 C376.083995,26.4513826 375.856981,27.8848374 375.856981,29.4813127 L375.856981,51 L370,51 Z" id="Path"></path>
                <path d="M425.234801,19.1756272 C423.803634,19.1756272 422.484277,19.4310036 421.27673,19.9417563 C420.069182,20.452509 419.018169,21.1789128 418.12369,22.1209677 C417.22921,23.0630227 416.513627,24.1980287 415.976939,25.5259857 C415.440252,26.8539427 415.116003,28.3351254 415.004193,29.9695341 L434.928721,29.9695341 C434.906359,28.3351254 434.654787,26.8539427 434.174004,25.5259857 C433.693222,24.1980287 433.027952,23.0630227 432.178197,22.1209677 C431.328442,21.1789128 430.316562,20.452509 429.142558,19.9417563 C427.968553,19.4310036 426.665968,19.1756272 425.234801,19.1756272 Z M440.530398,41.8530466 C440.105521,43.4193548 439.445842,44.8267622 438.551363,46.0752688 C437.656883,47.3237754 436.555556,48.390681 435.247379,49.2759857 C433.939203,50.1612903 432.452131,50.8366189 430.786164,51.3019713 C429.120196,51.7673238 427.292103,52 425.301887,52 C422.797345,52 420.538784,51.5573477 418.526205,50.672043 C416.513627,49.7867384 414.802935,48.5212067 413.39413,46.875448 C411.985325,45.2296894 410.900769,43.2377539 410.140461,40.8996416 C409.380154,38.5615293 409,35.9396655 409,33.0340502 C409,30.151135 409.385744,27.5349462 410.157233,25.1854839 C410.928721,22.8360215 412.018868,20.832736 413.427673,19.1756272 C414.836478,17.5185185 416.54717,16.2416368 418.559748,15.3449821 C420.572327,14.4483274 422.819706,14 425.301887,14 C427.739343,14 429.930818,14.4256272 431.87631,15.2768817 C433.821803,16.1281362 435.470999,17.3539427 436.823899,18.9543011 C438.176799,20.5546595 439.211041,22.4898447 439.926625,24.7598566 C440.642208,27.0298686 441,29.5949821 441,32.4551971 L441,34.702509 L415.004193,34.702509 L415.004193,34.9749104 C415.071279,36.79092 415.367575,38.4310036 415.893082,39.8951613 C416.418588,41.359319 417.134172,42.6021505 418.039832,43.6236559 C418.945493,44.6451613 420.018868,45.4339904 421.259958,45.9901434 C422.501048,46.5462963 423.893082,46.8243728 425.436059,46.8243728 C427.784067,46.8243728 429.73515,46.4044205 431.289308,45.5645161 C432.843466,44.7246117 434.000699,43.4874552 434.761006,41.8530466 L440.530398,41.8530466 Z" id="Shape"></path>
                <polygon id="Path" points="450 1 456 1 456 52 450 52"></polygon>
            </g>
        </g>
    </g>
</svg>