<?xml version="1.0" encoding="UTF-8"?>
<svg width="200px" height="200px" viewBox="0 0 200 200" version="1.1" xmlns="http://www.w3.org/2000/svg" xmlns:xlink="http://www.w3.org/1999/xlink">
    <title>Fill 1</title>
    <g id="Page-1" stroke="none" stroke-width="1" fill="none" fill-rule="evenodd">
        <path d="M100,145.689655 C74.137931,145.689655 54.3103448,125.862069 54.3103448,100 C54.3103448,74.137931 74.137931,54.5977011 100,54.5977011 C125.862069,54.5977011 145.689655,74.137931 145.689655,100 C145.689655,125.862069 125.862069,145.689655 100,145.689655 Z M4.88505747,87.6436782 L0,102.011494 L22.4137931,110.057471 C32.4712644,113.793103 37.9310345,100 27.8735632,95.9770115 L4.88505747,87.6436782 Z M39.3678161,21.8390805 L24.4252874,28.7356322 L35.9195402,50.5747126 C39.3678161,58.908046 54.0229885,53.7356322 49.4252874,43.6781609 L39.3678161,21.8390805 Z M97.9885057,0 L89.9425287,22.4137931 C86.2068966,32.4712644 100.287356,37.9310345 104.310345,27.8735632 L112.643678,5.17241379 L97.9885057,0 Z M171.83908,24.4252874 L150,34.7701149 C140.517241,39.6551724 146.551724,53.1609195 156.609195,48.8505747 L178.448276,38.5057471 L171.83908,24.4252874 Z M172.126437,104.310345 L195.114943,112.643678 L200,98.2758621 L177.586207,90.2298851 C167.241379,86.4942529 162.356322,100.862069 172.126437,104.310345 Z M160.057471,179.310345 L175,171.83908 L164.655172,149.712644 C160.632184,141.37931 145.977011,145.977011 150.574713,156.896552 L160.057471,179.310345 Z M102.011494,199.712644 L110.057471,177.298851 C113.793103,167.241379 99.7126437,161.781609 95.6896552,171.83908 L87.3563218,194.54023 L102.011494,199.712644 Z M28.1609195,175.574713 L50.2873563,165.517241 C59.1954023,159.770115 53.4482759,147.701149 43.3908046,151.149425 L21.5517241,161.494253 L28.1609195,175.574713 Z" id="Fill-1" fill="#815F00"></path>
    </g>
</svg>