<?xml version="1.0" encoding="UTF-8"?>
<svg width="300px" height="300px" viewBox="0 0 300 300" version="1.1" xmlns="http://www.w3.org/2000/svg" xmlns:xlink="http://www.w3.org/1999/xlink">
    <title>Group 7</title>
    <g id="Page-1" stroke="none" stroke-width="1" fill="none" fill-rule="evenodd">
        <g id="Group-7">
            <rect id="Rectangle" fill="#815F00" x="0" y="0" width="300" height="300"></rect>
            <path d="M150,195.689655 C124.137931,195.689655 104.310345,175.862069 104.310345,150 C104.310345,124.137931 124.137931,104.597701 150,104.597701 C175.862069,104.597701 195.689655,124.137931 195.689655,150 C195.689655,175.862069 175.862069,195.689655 150,195.689655 Z M54.8850575,137.643678 L50,152.011494 L72.4137931,160.057471 C82.4712644,163.793103 87.9310345,150 77.8735632,145.977011 L54.8850575,137.643678 Z M89.3678161,71.8390805 L74.4252874,78.7356322 L85.9195402,100.574713 C89.3678161,108.908046 104.022989,103.735632 99.4252874,93.6781609 L89.3678161,71.8390805 Z M147.988506,50 L139.942529,72.4137931 C136.206897,82.4712644 150.287356,87.9310345 154.310345,77.8735632 L162.643678,55.1724138 L147.988506,50 Z M221.83908,74.4252874 L200,84.7701149 C190.517241,89.6551724 196.551724,103.16092 206.609195,98.8505747 L228.448276,88.5057471 L221.83908,74.4252874 Z M222.126437,154.310345 L245.114943,162.643678 L250,148.275862 L227.586207,140.229885 C217.241379,136.494253 212.356322,150.862069 222.126437,154.310345 Z M210.057471,229.310345 L225,221.83908 L214.655172,199.712644 C210.632184,191.37931 195.977011,195.977011 200.574713,206.896552 L210.057471,229.310345 Z M152.011494,249.712644 L160.057471,227.298851 C163.793103,217.241379 149.712644,211.781609 145.689655,221.83908 L137.356322,244.54023 L152.011494,249.712644 Z M78.1609195,225.574713 L100.287356,215.517241 C109.195402,209.770115 103.448276,197.701149 93.3908046,201.149425 L71.5517241,211.494253 L78.1609195,225.574713 Z" id="Fill-1" fill="#FFFFFF"></path>
        </g>
    </g>
</svg>